<svg xmlns="http://www.w3.org/2000/svg" viewBox="0 0 512 512">
  <defs>
    <linearGradient id="bg" x1="80" y1="40" x2="440" y2="472" gradientUnits="userSpaceOnUse">
      <stop offset="0" stop-color="#111827"/>
      <stop offset="0.55" stop-color="#172033"/>
      <stop offset="1" stop-color="#0B1020"/>
    </linearGradient>
    <radialGradient id="glowA" cx="25%" cy="16%" r="76%">
      <stop offset="0" stop-color="#FFD166" stop-opacity="0.55"/>
      <stop offset="0.46" stop-color="#FFD166" stop-opacity="0.08"/>
      <stop offset="1" stop-color="#FFD166" stop-opacity="0"/>
    </radialGradient>
    <radialGradient id="glowB" cx="82%" cy="20%" r="70%">
      <stop offset="0" stop-color="#06D6A0" stop-opacity="0.38"/>
      <stop offset="0.48" stop-color="#06D6A0" stop-opacity="0.08"/>
      <stop offset="1" stop-color="#06D6A0" stop-opacity="0"/>
    </radialGradient>
    <linearGradient id="book" x1="130" y1="172" x2="374" y2="380" gradientUnits="userSpaceOnUse">
      <stop offset="0" stop-color="#EEF4FF"/>
      <stop offset="1" stop-color="#B9C7DE"/>
    </linearGradient>
    <linearGradient id="bookEdge" x1="128" y1="318" x2="392" y2="410" gradientUnits="userSpaceOnUse">
      <stop offset="0" stop-color="#FFD166"/>
      <stop offset="1" stop-color="#F4A63A"/>
    </linearGradient>
    <linearGradient id="pen" x1="298" y1="120" x2="190" y2="404" gradientUnits="userSpaceOnUse">
      <stop offset="0" stop-color="#06D6A0"/>
      <stop offset="0.52" stop-color="#5BE7C4"/>
      <stop offset="1" stop-color="#FFD166"/>
    </linearGradient>
    <filter id="shadow" x="-20%" y="-20%" width="140%" height="150%">
      <feDropShadow dx="0" dy="16" stdDeviation="18" flood-color="#000000" flood-opacity="0.35"/>
    </filter>
  </defs>

  <rect width="512" height="512" rx="118" fill="url(#bg)"/>
  <rect width="512" height="512" rx="118" fill="url(#glowA)"/>
  <rect width="512" height="512" rx="118" fill="url(#glowB)"/>
  <path d="M82 154c0-40 32-72 72-72h204c40 0 72 32 72 72v204c0 40-32 72-72 72H154c-40 0-72-32-72-72V154Z" fill="none" stroke="rgba(255,255,255,0.08)" stroke-width="2"/>

  <g filter="url(#shadow)">
    <path d="M132 175c0-16 13-29 29-29h76c23 0 42 11 53 28 11-17 30-28 53-28h8c16 0 29 13 29 29v205c0 7-6 12-13 10l-70-18c-18-5-38-5-56 0l-70 18c-7 2-13-3-13-10V175Z" fill="rgba(0,0,0,0.22)" transform="translate(6 8)"/>
    <path d="M124 167c0-16 13-29 29-29h76c23 0 42 11 53 28 11-17 30-28 53-28h8c16 0 29 13 29 29v205c0 7-6 12-13 10l-70-18c-18-5-38-5-56 0l-70 18c-7 2-13-3-13-10V167Z" fill="url(#book)"/>
    <path d="M282 166v198" stroke="#8290A7" stroke-width="8" stroke-linecap="round"/>
    <path d="M149 328c34-13 72-13 106 0 12 5 21 15 27 27 6-12 15-22 27-27 20-8 42-11 63-8v52c0 7-6 12-13 10l-70-18c-18-5-38-5-56 0l-70 18c-7 2-13-3-13-10v-44Z" fill="url(#bookEdge)" opacity="0.92"/>
    <path d="M162 190h72M162 226h74M162 262h64" stroke="#8A98AE" stroke-width="12" stroke-linecap="round" opacity="0.55"/>
    <path d="M323 189h30M323 226h30M323 262h30" stroke="#8A98AE" stroke-width="12" stroke-linecap="round" opacity="0.48"/>

    <g transform="rotate(23 278 256)">
      <rect x="258" y="92" width="48" height="252" rx="24" fill="rgba(0,0,0,0.22)" transform="translate(8 12)"/>
      <rect x="258" y="92" width="48" height="252" rx="24" fill="url(#pen)"/>
      <path d="M258 314h48l-24 72-24-72Z" fill="#F8FAFF"/>
      <path d="M274 366h16l-8 24-8-24Z" fill="#111827"/>
      <path d="M268 96h28c6 0 10 5 10 10v28h-48v-28c0-5 4-10 10-10Z" fill="#FFD166"/>
      <path d="M258 146h48" stroke="rgba(17,24,39,0.35)" stroke-width="10"/>
    </g>
  </g>

  <path d="M116 121c-10 12-17 26-21 41M397 103c14 8 26 20 34 34" stroke="rgba(255,255,255,0.18)" stroke-width="10" stroke-linecap="round"/>
</svg>
